#!OML:ASF F:\VICON\USERDATA\INSTALL\rory3\rory3.ASF
:FULLY-SPECIFIED
:DEGREES
250
root 3.70632 18.1136 25.9869 -3.75357 -2.74517 -5.48204
lowerback 10.7263 0.486871 3.64559
upperback 0.331755 1.24012 2.48407
thorax -5.65597 0.545075 0.358054
lowerneck -16.552 -2.7631 -1.90458
upperneck 18.1425 -3.44214 0.578822
head 8.41928 -1.69829 0.0941665
rclavicle -1.15481e-014 -1.07344e-014
rhumerus -30.5774 -16.4105 -79.6771
rradius 25.486
rwrist 4.23556
rhand -16.9427 20.5537
rfingers 7.12502
rthumb 9.29064 -9.22159
lclavicle -1.15481e-014 -1.07344e-014
lhumerus -34.8906 -1.64878 84.9149
lradius 31.8769
lwrist 8.32452
lhand -27.377 20.43
lfingers 7.12502
lthumb -0.78424 50.4083
rfemur -8.78878 6.52668 31.4818
rtibia 29.0537
rfoot -12.5361 -5.02403
rtoes 9.05959
lfemur -18.7476 1.33397 -14.1356
ltibia 69.3282
lfoot -3.30852 -9.49133
ltoes -3.7577
251
root 3.69446 18.0908 26.1549 -3.61614 -2.97105 -5.65768
lowerback 10.7712 0.680822 3.84021
upperback 0.256091 1.52467 2.4302
thorax -5.7492 0.676891 0.148066
lowerneck -16.5812 -2.91931 -1.8232
upperneck 18.1946 -3.66302 0.506938
head 8.44174 -1.8041 0.0291222
rclavicle -1.91144e-014 -3.97569e-015
rhumerus -30.4342 -15.9828 -80.0014
rradius 26.1587
rwrist 4.22381
rhand -17.115 19.4444
rfingers 7.12502
rthumb 9.12436 -10.3383
lclavicle -1.91144e-014 -3.97569e-015
lhumerus -35.2912 -2.1308 85.2177
lradius 31.9713
lwrist 9.90706
lhand -28.1353 21.0341
lfingers 7.12502
lthumb -1.51663 51.0084
rfemur -8.4464 6.99204 31.8422
rtibia 29.3867
rfoot -13.2184 -5.47563
rtoes 8.48999
lfemur -19.8985 1.34661 -13.7768
ltibia 68.9438
lfoot -4.14119 -9.11682
ltoes -4.4139
252
root 3.68714 18.084 26.3253 -3.62065 -3.2059 -5.74732
lowerback 10.9362 0.824475 3.92286
upperback 0.252553 1.73294 2.38512
thorax -5.83692 0.774669 0.0196329
lowerneck -16.6292 -2.95163 -1.79011
upperneck 18.1446 -3.71773 0.52312
head 8.43365 -1.82569 0.0222025
rclavicle 1.53934e-014 7.95139e-015
rhumerus -30.0824 -15.2681 -80.3803
rradius 26.6609
rwrist 3.94895
rhand -17.0282 18.7655
rfingers 7.12502
rthumb 9.20816 -11.0134
lclavicle 1.53934e-014 7.95139e-015
lhumerus -35.6333 -2.60413 85.484
lradius 32.3113
lwrist 11.4124
lhand -28.1452 21.6307
lfingers 7.12502
lthumb -1.5261 51.605
rfemur -7.86725 7.38878 32.105
rtibia 29.5733
rfoot -13.8452 -5.80809
rtoes 8.37681
lfemur -20.9121 1.13446 -13.4762
ltibia 68.4284
lfoot -4.10223 -8.7291
ltoes -0.461825
253
root 3.68959 18.0671 26.5047 -3.71605 -3.24601 -5.81417
lowerback 11.0141 0.875863 4.13776
upperback 0.324426 1.82575 2.32403
thorax -5.79375 0.814693 -0.180337
lowerneck -16.6137 -2.95505 -1.93566
upperneck 18.0346 -3.73785 0.778835
head 8.40232 -1.81862 0.130349
rclavicle 2.69757e-014 -1.80894e-014
rhumerus -29.5512 -14.4487 -80.7849
rradius 27.0185
rwrist 3.32896
rhand -17.0023 17.641
rfingers 7.12502
rthumb 9.23308 -12.1369
lclavicle 2.69757e-014 -1.80894e-014
lhumerus -35.9037 -2.41869 85.3653
lradius 32.3052
lwrist 10.9048
lhand -27.6465 20.6343
lfingers 7.12502
lthumb -1.04448 50.6115
rfemur -7.11137 7.31256 32.2631
rtibia 29.6529
rfoot -14.4726 -5.95196
rtoes 8.45058
lfemur -21.5766 0.88664 -13.3752
ltibia 67.6204
lfoot -4.57101 -8.18234
ltoes -0.79608
254
root 3.68904 18.0442 26.6802 -3.71205 -3.20332 -6.08452
lowerback 10.9746 0.873251 4.50139
upperback 0.396652 1.86384 2.35804
thorax -5.68415 0.826734 -0.352967
lowerneck -16.4587 -2.99982 -2.18957
upperneck 17.7842 -3.80228 1.10353
head 8.3034 -1.83408 0.276771
rclavicle -8.88008e-015 2.47487e-014
rhumerus -29.0009 -13.7685 -81.1374
rradius 27.3097
rwrist 2.65037
rhand -17.2237 18.534
rfingers 7.12502
rthumb 9.01948 -11.2532
lclavicle -8.88008e-015 2.47487e-014
lhumerus -36.0765 -2.15822 85.2815
lradius 32.0511
lwrist 10.1981
lhand -27.7852 19.8106
lfingers 7.12502
lthumb -1.17841 49.7871
rfemur -6.50389 7.18285 32.6379
rtibia 29.7264
rfoot -15.0037 -6.12674
rtoes 8.32775
lfemur -22.4925 0.836522 -13.0641
ltibia 66.6863
lfoot -5.4095 -7.62854
ltoes -2.83464
255
root 3.68351 18.0251 26.8422 -3.51848 -3.25367 -6.47743
lowerback 10.9628 0.920774 4.92067
upperback 0.446474 1.97946 2.42078
thorax -5.60946 0.875265 -0.538849
lowerneck -16.7934 -3.08177 -2.23396
upperneck 17.7283 -3.90249 1.14164
head 8.3475 -1.87831 0.280075
rclavicle -1.11785e-014 -2.39536e-014
rhumerus -28.3942 -12.9231 -81.5383
rradius 27.7274
rwrist 1.71349
rhand -17.577 21.4463
rfingers 7.12502
rthumb 8.6786 -8.35532
lclavicle -1.11785e-014 -2.39536e-014
lhumerus -36.0219 -2.12087 85.3337
lradius 31.8657
lwrist 10.2308
lhand -27.9459 19.5451
lfingers 7.12502
lthumb -1.33368 49.5207
rfemur -6.20497 7.29902 33.164
rtibia 29.9233
rfoot -15.5164 -6.39546
rtoes 8.47138
lfemur -23.7486 0.878354 -12.5625
ltibia 65.6602
lfoot -6.03234 -7.05216
ltoes -1.93926
